<svg xmlns="http://www.w3.org/2000/svg" viewBox="0 0 1024 1024" role="img" aria-label="TourniBase blue app icon">
  <rect x="96" y="96" width="832" height="832" rx="180" fill="#2563EB"/>
  <g transform="translate(512 599) scale(1.12) translate(-512 -512)">
    
    <g fill="none" fill-rule="evenodd">
      <path fill="#0F172A" d="M672 530 Q689 540 689 557 L689 607 Q689 622 675 630 L530 714 Q512 724 494 714 L349 630 Q335 622 335 607 L335 557 Q335 540 352 530 L512 622 L672 530Z"/>
      <path fill="#0F172A" d="M512 622 L672 530 Q689 540 689 557 L689 607 Q689 622 675 630 L530 714 Q512 724 512 704 Z"/>
      <path fill="#FFFFFF" d="M352 508 L494 426 Q512 416 530 426 L672 508 Q690 518 690 538 Q690 558 672 568 L530 650 Q512 660 494 650 L352 568 Q334 558 334 538 Q334 518 352 508Z"/>
      <ellipse cx="512" cy="538" rx="54" ry="31" fill="#2563EB"/>
      <path transform="translate(526 188) scale(0.74 0.9)" fill="#FFFFFF" d="M130.14 21.5473C152.702 24.3812 173.157 19.3328 192.804 7.5814C192.972 9.96086 193.178 11.5277 193.179 13.0946C193.197 45.7525 193.122 78.4107 193.286 111.068C193.305 114.875 191.865 116.541 188.63 118.118C156.978 133.549 125.062 133.783 93.0542 119.663C62.952 106.384 33.2554 107.253 3.66552 121.055C2.7943 121.462 1.87755 121.771 0.533313 122.303C0.359363 120.644 0.116321 119.403 0.115649 118.162C0.0957524 83.505 0.175586 48.8471 0.000231906 14.1906C-0.0203981 10.1167 1.33281 8.62584 5.08947 7.27714C36.8924 -4.14052 67.6851 -1.8254 98.2992 12.1355C108.14 16.6232 119.199 18.439 130.14 21.5473Z"/>
      <rect x="498" y="145" width="28" height="405" rx="14" fill="#0F172A"/>
    </g>
  </g>
</svg>
