<svg xmlns="http://www.w3.org/2000/svg" viewBox="0 0 2400 800" role="img" aria-label="TourniBase transparent logo lockup">
  <g transform="translate(61 62) scale(0.67)">
    <g transform="translate(512 599) scale(1.12) translate(-512 -512)">
      
    <g fill="none" fill-rule="evenodd">
      <path fill="#0F172A" d="M672 530 Q689 540 689 557 L689 607 Q689 622 675 630 L530 714 Q512 724 494 714 L349 630 Q335 622 335 607 L335 557 Q335 540 352 530 L512 622 L672 530Z"/>
      <path fill="#0F172A" d="M512 622 L672 530 Q689 540 689 557 L689 607 Q689 622 675 630 L530 714 Q512 724 512 704 Z"/>
      <path fill="#2563EB" d="M352 508 L494 426 Q512 416 530 426 L672 508 Q690 518 690 538 Q690 558 672 568 L530 650 Q512 660 494 650 L352 568 Q334 558 334 538 Q334 518 352 508Z"/>
      <ellipse cx="512" cy="538" rx="54" ry="31" fill="#FFFFFF"/>
      <path transform="translate(526 188) scale(0.74 0.9)" fill="#2563EB" d="M130.14 21.5473C152.702 24.3812 173.157 19.3328 192.804 7.5814C192.972 9.96086 193.178 11.5277 193.179 13.0946C193.197 45.7525 193.122 78.4107 193.286 111.068C193.305 114.875 191.865 116.541 188.63 118.118C156.978 133.549 125.062 133.783 93.0542 119.663C62.952 106.384 33.2554 107.253 3.66552 121.055C2.7943 121.462 1.87755 121.771 0.533313 122.303C0.359363 120.644 0.116321 119.403 0.115649 118.162C0.0957524 83.505 0.175586 48.8471 0.000231906 14.1906C-0.0203981 10.1167 1.33281 8.62584 5.08947 7.27714C36.8924 -4.14052 67.6851 -1.8254 98.2992 12.1355C108.14 16.6232 119.199 18.439 130.14 21.5473Z"/>
      <rect x="498" y="145" width="28" height="405" rx="14" fill="#0F172A"/>
    </g>
    </g>
  </g>
  <path transform="translate(-6 0)" fill="#0F172A" d="M824.887 342.009L782.963 342.009L782.963 479.814Q782.963 491.719 777.658 497.477Q772.353 503.235 763.942 503.235Q755.402 503.235 750.032 497.412Q744.662 491.589 744.662 479.814L744.662 342.009L702.738 342.009Q692.904 342.009 688.117 337.675Q683.329 333.340 683.329 326.223Q683.329 318.848 688.311 314.578Q693.292 310.308 702.738 310.308L824.887 310.308Q834.850 310.308 839.702 314.707Q844.555 319.106 844.555 326.223Q844.555 333.340 839.638 337.675Q834.721 342.009 824.887 342.009ZM980.419 431.421Q980.419 447.207 975.502 460.535Q970.585 473.862 961.269 483.438Q951.952 493.013 939.013 498.124Q926.073 503.235 909.899 503.235Q893.854 503.235 881.044 498.059Q868.234 492.883 858.853 483.243Q849.472 473.604 844.619 460.470Q839.767 447.336 839.767 431.421Q839.767 415.376 844.684 402.048Q849.601 388.721 858.788 379.275Q867.975 369.829 881.044 364.718Q894.113 359.607 909.899 359.607Q925.944 359.607 939.013 364.783Q952.082 369.958 961.398 379.534Q970.714 389.109 975.567 402.307Q980.419 415.505 980.419 431.421ZM944.965 431.421Q944.965 409.812 935.454 397.778Q925.944 385.745 909.899 385.745Q899.547 385.745 891.654 391.115Q883.761 396.484 879.491 406.965Q875.221 417.446 875.221 431.421Q875.221 445.266 879.427 455.618Q883.632 465.969 891.460 471.469Q899.289 476.968 909.899 476.968Q925.944 476.968 935.454 464.869Q944.965 452.771 944.965 431.421ZM1099.979 483.308L1099.979 478.779Q1093.639 486.802 1086.652 492.236Q1079.665 497.671 1071.383 500.323Q1063.102 502.976 1052.492 502.976Q1039.682 502.976 1029.524 497.671Q1019.367 492.366 1013.803 483.049Q1007.204 471.792 1007.204 450.701L1007.204 380.698Q1007.204 370.088 1011.991 364.847Q1016.779 359.607 1024.672 359.607Q1032.694 359.607 1037.611 364.912Q1042.528 370.217 1042.528 380.698L1042.528 437.244Q1042.528 449.536 1044.599 457.882Q1046.669 466.228 1052.039 470.951Q1057.409 475.674 1066.596 475.674Q1075.524 475.674 1083.417 470.369Q1091.310 465.063 1094.933 456.523Q1097.909 449.019 1097.909 423.657L1097.909 380.698Q1097.909 370.217 1102.826 364.912Q1107.743 359.607 1115.636 359.607Q1123.529 359.607 1128.317 364.847Q1133.104 370.088 1133.104 380.698L1133.104 483.049Q1133.104 493.142 1128.511 498.188Q1123.917 503.235 1116.671 503.235Q1109.425 503.235 1104.702 497.994Q1099.979 492.754 1099.979 483.308ZM1203.366 452.253L1203.366 481.755Q1203.366 492.495 1198.319 497.865Q1193.273 503.235 1185.509 503.235Q1177.875 503.235 1172.958 497.800Q1168.041 492.366 1168.041 481.755L1168.041 383.416Q1168.041 359.607 1185.250 359.607Q1194.049 359.607 1197.931 365.171Q1201.813 370.735 1202.201 381.604Q1208.542 370.735 1215.205 365.171Q1221.869 359.607 1232.997 359.607Q1244.125 359.607 1254.606 365.171Q1265.087 370.735 1265.087 379.922Q1265.087 386.392 1260.623 390.597Q1256.159 394.802 1250.983 394.802Q1249.042 394.802 1241.602 392.408Q1234.162 390.015 1228.468 390.015Q1220.705 390.015 1215.788 394.091Q1210.871 398.167 1208.153 406.189Q1205.436 414.211 1204.401 425.275Q1203.366 436.338 1203.366 452.253ZM1316.457 379.146L1316.457 383.416Q1325.773 371.123 1336.836 365.365Q1347.899 359.607 1362.262 359.607Q1376.237 359.607 1387.235 365.688Q1398.234 371.770 1403.668 382.898Q1407.162 389.368 1408.197 396.873Q1409.232 404.377 1409.232 416.023L1409.232 481.755Q1409.232 492.366 1404.380 497.800Q1399.528 503.235 1391.764 503.235Q1383.871 503.235 1378.954 497.671Q1374.037 492.107 1374.037 481.755L1374.037 422.881Q1374.037 405.413 1369.185 396.161Q1364.333 386.909 1349.840 386.909Q1340.395 386.909 1332.631 392.538Q1324.867 398.167 1321.244 408Q1318.656 415.894 1318.656 437.502L1318.656 481.755Q1318.656 492.495 1313.675 497.865Q1308.693 503.235 1300.800 503.235Q1293.166 503.235 1288.249 497.671Q1283.332 492.107 1283.332 481.755L1283.332 379.663Q1283.332 369.570 1287.731 364.589Q1292.130 359.607 1299.765 359.607Q1304.423 359.607 1308.175 361.807Q1311.928 364.006 1314.192 368.406Q1316.457 372.805 1316.457 379.146ZM1479.752 379.663L1479.752 481.755Q1479.752 492.366 1474.706 497.800Q1469.660 503.235 1461.896 503.235Q1454.132 503.235 1449.280 497.671Q1444.428 492.107 1444.428 481.755L1444.428 380.698Q1444.428 370.217 1449.280 364.912Q1454.132 359.607 1461.896 359.607Q1469.660 359.607 1474.706 364.912Q1479.752 370.217 1479.752 379.663ZM1462.284 343.174Q1454.909 343.174 1449.668 338.645Q1444.428 334.116 1444.428 325.835Q1444.428 318.330 1449.798 313.478Q1455.167 308.625 1462.284 308.625Q1469.142 308.625 1474.447 313.025Q1479.752 317.424 1479.752 325.835Q1479.752 333.987 1474.577 338.580Q1469.401 343.174 1462.284 343.174ZM1599.701 500L1541.732 500Q1529.181 500 1523.811 494.371Q1518.441 488.743 1518.441 476.450L1518.441 333.857Q1518.441 321.306 1523.941 315.807Q1529.440 310.308 1541.732 310.308L1603.195 310.308Q1616.781 310.308 1626.745 311.990Q1636.708 313.672 1644.601 318.459Q1651.330 322.471 1656.505 328.617Q1661.681 334.763 1664.398 342.203Q1667.116 349.644 1667.116 357.925Q1667.116 386.392 1638.649 399.590Q1676.044 411.494 1676.044 445.913Q1676.044 461.829 1667.892 474.574Q1659.740 487.319 1645.895 493.401Q1637.226 497.024 1625.968 498.512Q1614.711 500 1599.701 500ZM1596.854 415.764L1556.872 415.764L1556.872 471.145L1598.148 471.145Q1637.096 471.145 1637.096 443.066Q1637.096 428.704 1627.003 422.234Q1616.911 415.764 1596.854 415.764ZM1556.872 339.163L1556.872 388.203L1592.067 388.203Q1606.430 388.203 1614.258 385.486Q1622.086 382.769 1626.227 375.134Q1629.462 369.700 1629.462 362.971Q1629.462 348.608 1619.240 343.885Q1609.018 339.163 1588.056 339.163ZM1796.122 483.308Q1783.312 493.271 1771.343 498.253Q1759.374 503.235 1744.494 503.235Q1730.907 503.235 1720.620 497.865Q1710.333 492.495 1704.770 483.308Q1699.206 474.121 1699.206 463.381Q1699.206 448.889 1708.393 438.667Q1717.580 428.445 1733.625 424.951Q1736.989 424.175 1750.316 421.458Q1763.644 418.740 1773.155 416.476Q1782.665 414.211 1793.793 410.977Q1793.146 397.002 1788.164 390.468Q1783.183 383.933 1767.526 383.933Q1754.069 383.933 1747.276 387.686Q1740.482 391.438 1735.630 398.943Q1730.778 406.448 1728.772 408.842Q1726.767 411.235 1720.167 411.235Q1714.215 411.235 1709.881 407.418Q1705.546 403.601 1705.546 397.649Q1705.546 388.333 1712.145 379.534Q1718.744 370.735 1732.719 365.042Q1746.693 359.348 1767.526 359.348Q1790.817 359.348 1804.145 364.847Q1817.472 370.347 1822.971 382.251Q1828.471 394.155 1828.471 413.823Q1828.471 426.245 1828.406 434.915Q1828.341 443.584 1828.212 454.194Q1828.212 464.158 1831.511 474.962Q1834.811 485.767 1834.811 488.872Q1834.811 494.307 1829.700 498.771Q1824.589 503.235 1818.119 503.235Q1812.685 503.235 1807.379 498.124Q1802.074 493.013 1796.122 483.308ZM1793.793 432.197Q1786.029 435.044 1771.214 438.214Q1756.398 441.384 1750.705 442.872Q1745.011 444.360 1739.835 448.695Q1734.660 453.030 1734.660 460.793Q1734.660 468.816 1740.741 474.445Q1746.823 480.073 1756.657 480.073Q1767.138 480.073 1776.001 475.480Q1784.865 470.886 1789.005 463.640Q1793.793 455.618 1793.793 437.244ZM1978.051 457.041Q1978.051 471.663 1970.934 482.079Q1963.817 492.495 1949.907 497.865Q1935.998 503.235 1916.071 503.235Q1897.050 503.235 1883.463 497.412Q1869.877 491.589 1863.407 482.855Q1856.938 474.121 1856.938 465.322Q1856.938 459.500 1861.078 455.359Q1865.219 451.218 1871.559 451.218Q1877.123 451.218 1880.099 453.936Q1883.075 456.653 1885.792 461.570Q1891.227 471.016 1898.797 475.674Q1906.366 480.332 1919.435 480.332Q1930.045 480.332 1936.839 475.609Q1943.632 470.886 1943.632 464.805Q1943.632 455.488 1936.580 451.218Q1929.528 446.948 1913.354 443.066Q1895.109 438.538 1883.657 433.556Q1872.206 428.574 1865.348 420.422Q1858.490 412.271 1858.490 400.366Q1858.490 389.756 1864.831 380.310Q1871.171 370.864 1883.528 365.236Q1895.885 359.607 1913.354 359.607Q1927.069 359.607 1938.003 362.454Q1948.937 365.300 1956.248 370.088Q1963.559 374.875 1967.376 380.698Q1971.193 386.521 1971.193 392.085Q1971.193 398.167 1967.117 402.048Q1963.041 405.930 1955.536 405.930Q1950.102 405.930 1946.284 402.825Q1942.467 399.719 1937.550 393.508Q1933.539 388.333 1928.104 385.227Q1922.670 382.122 1913.354 382.122Q1903.778 382.122 1897.438 386.198Q1891.098 390.273 1891.098 396.355Q1891.098 401.919 1895.756 405.477Q1900.414 409.036 1908.307 411.365Q1916.200 413.694 1930.045 417.058Q1946.479 421.069 1956.895 426.633Q1967.311 432.197 1972.681 439.767Q1978.051 447.336 1978.051 457.041ZM2106.540 440.090L2037.443 440.090Q2037.572 452.124 2042.295 461.311Q2047.018 470.498 2054.846 475.156Q2062.675 479.814 2072.121 479.814Q2078.461 479.814 2083.701 478.326Q2088.942 476.838 2093.859 473.668Q2098.776 470.498 2102.917 466.875Q2107.057 463.252 2113.656 457.041Q2116.374 454.712 2121.420 454.712Q2126.854 454.712 2130.219 457.688Q2133.583 460.664 2133.583 466.099Q2133.583 470.886 2129.831 477.291Q2126.078 483.696 2118.509 489.584Q2110.939 495.471 2099.488 499.353Q2088.036 503.235 2073.156 503.235Q2039.125 503.235 2020.233 483.826Q2001.342 464.417 2001.342 431.162Q2001.342 415.505 2006 402.113Q2010.658 388.721 2019.586 379.146Q2028.515 369.570 2041.583 364.459Q2054.652 359.348 2070.568 359.348Q2091.271 359.348 2106.087 368.082Q2120.902 376.816 2128.278 390.662Q2135.653 404.507 2135.653 418.870Q2135.653 432.197 2128.019 436.144Q2120.385 440.090 2106.540 440.090ZM2037.443 420.034L2101.493 420.034Q2100.199 401.919 2091.724 392.926Q2083.249 383.933 2069.403 383.933Q2056.205 383.933 2047.730 393.055Q2039.254 402.178 2037.443 420.034Z"/>
</svg>
